<mxfile host="app.diagrams.net" modified="2023-09-20T08:58:35.417Z" agent="Mozilla/5.0 (Windows NT 10.0; Win64; x64) AppleWebKit/537.36 (KHTML, like Gecko) Chrome/116.0.0.0 Safari/537.36" version="21.7.5" etag="UF2RLuGG971Y21aAzQeU" type="github">
  <diagram name="第 1 页" id="7ZD0c2hPyeWtLv1tjlST">
    <mxGraphModel>
      <root>
        <mxCell id="0" />
        <mxCell id="1" parent="0" />
      </root>
    </mxGraphModel>
  </diagram>
</mxfile>
